<svg id="Layer_1" enable-background="new 0 0 512.011 512.011" height="512" viewBox="0 0 512.011 512.011" width="512" xmlns="http://www.w3.org/2000/svg"><g><g clip-rule="evenodd" fill-rule="evenodd"><path d="m454.815 57.052c-22.993-34.262-58.636-27.698-84.797 27.477 11.239 3.973 20.561 9.917 27.952 17.11 15.081-23.516 36.943-40.231 56.845-44.587z" fill="#ffad95"/><path d="m454.815 57.052c-19.902 4.356-41.765 21.071-56.845 44.587 7.783 7.576 13.423 16.537 16.904 26.043 46.803-17.697 96.832-35.325 75.319-60.339-8.985-10.449-21.72-13.28-35.378-10.291z" fill="#ffad95"/><path d="m397.97 101.639c-7.39-7.193-16.712-13.137-27.952-17.11-13.778-4.87-30.436-6.78-49.949-4.4-100.435 12.25-333.548 106.528-308.136 230.67 14.427 70.479 62.76 91.124 126.241 83.294 43.986-5.426 111.176-71.008 160.775-114.803 77.547-68.472 64.96-54.579 97.252-79.844 14.928-11.68 22.513-29.037 22.859-46.958.161-8.318-1.238-16.757-4.185-24.806-3.481-9.506-9.122-18.467-16.905-26.043z" fill="#ff764e"/><path d="m298.949 279.29c-49.598 43.794-116.789 109.376-160.775 114.803-45.544 5.618-83.29-3.421-106.313-35.004l-.125.686c-1.454 44.249 23.907 99.077 92.734 95.539 0 0 59.874 44.139 147.161 3.56 0 0 91.615 2.136 119.027-76.886 0 0 74.301 6.407 92.336-59.089 33.01-32.578 17.955-83.201-6.66-104.526 0 0-3.727-65.496-57.274-65.885-.346 17.921-7.931 35.278-22.859 46.958-32.292 25.265-19.705 11.372-97.252 79.844z" fill="#fff"/></g><g><path d="m511.966 274.171c-.727-22.399-10.839-45.696-26.062-60.572-.79-6.36-2.996-19.013-8.873-31.832-10.224-22.302-26.862-35.501-48.41-38.576-.328-3.16-.85-6.307-1.56-9.42 39.02-14.733 72.164-27.796 77.538-48.848 1.452-5.687 1.446-14.483-6.824-24.101-9.118-10.602-21.667-15.711-36.328-14.788-.724.046-1.452.11-2.182.186-11.182-14.015-25.145-21.112-39.833-20.093-20.091 1.393-39.311 17.794-54.565 46.389-13.901-3.561-29.288-4.353-46.009-2.314-42.543 5.189-101.206 23.315-153.098 47.305-45.238 20.914-106.347 55.824-140.56 103.368-21.637 30.068-29.397 60.998-23.065 91.93 3.956 19.328 10.497 35.752 19.552 49.166-.364 30.332 10.673 59.396 29.79 78.162 17.639 17.314 41.857 26.028 70.151 25.297 5.999 3.771 20.443 11.787 41.443 16.625 9.649 2.224 21.482 3.926 35.099 3.925 21.356 0 47.095-4.186 75.659-17.114 6.892-.12 27.364-1.211 50.378-9.377 34.937-12.397 60.133-35.596 73.281-67.339 7.987-.102 21.283-1.089 35.587-5.611 29.777-9.414 50.065-29.594 58.821-58.442 13.814-14.593 20.743-33.179 20.07-53.926zm-29.354-200.307c3.216 3.739 2.76 5.525 2.61 6.112-.517 2.024-3.573 7.683-20.752 16.501-12.324 6.327-28.395 12.51-44.278 18.509-2.639-5.107-5.8-9.874-9.441-14.26 14.778-19.933 35.099-33.665 51.959-34.731 8.267-.521 14.961 2.125 19.902 7.869zm-61.796-27.784c6.538-.457 12.213 2.372 16.878 6.364-14.984 6.934-29.728 19.039-41.635 34.54-3.086-2.246-6.347-4.315-9.793-6.174-.809-.436-1.634-.844-2.456-1.255 11.424-20.542 24.669-32.62 37.006-33.475zm55.152 269.702c-1.248 1.231-2.151 2.771-2.617 4.463-6.467 23.487-21.851 39.313-45.724 47.039-18.751 6.067-35.965 4.754-36.11 4.741-4.563-.401-8.807 2.361-10.307 6.686-10.257 29.566-31.485 50.331-63.097 61.717-24.357 8.774-46.051 8.451-46.25 8.449-1.532-.041-3.058.281-4.449.929-33.778 15.704-67.054 20.07-98.902 12.976-23.856-5.312-37.998-15.437-38.108-15.516-1.86-1.373-4.129-2.073-6.447-1.938-24.364 1.244-44.034-5.298-58.468-19.467-10.417-10.226-17.828-24.47-21.399-40.405 2.395 1.761 4.876 3.415 7.453 4.949 17.029 10.139 38.033 15.235 62.661 15.235 8.018 0 16.421-.541 25.194-1.623 24.429-3.013 55.389-21.239 100.388-59.099 4.226-3.556 4.77-9.864 1.214-14.09-3.557-4.228-9.867-4.771-14.09-1.215-25.983 21.861-63.577 51.3-89.96 54.554-65.494 8.076-103.184-16.576-115.22-75.374-5.166-25.236 1.464-50.886 19.705-76.235 31.676-44.019 89.656-76.989 132.719-96.897 50.132-23.176 106.508-40.65 147.127-45.604 40.089-4.888 71.228 9.601 83.304 38.758 9.462 22.845 3.48 48.651-14.546 62.756-8.899 6.963-14.396 10.948-19.247 14.465-12.819 9.295-22.083 16.011-76.625 64.139-4.142 3.654-4.536 9.974-.882 14.114 3.654 4.142 9.973 4.536 14.114.882 53.825-47.494 62.763-53.974 75.133-62.942 4.989-3.617 10.644-7.717 19.831-14.905 12.738-9.967 21.36-23.74 24.936-39.832.3-1.349.547-2.711.77-4.079 34.883 7.126 38.154 53.442 38.282 55.53.153 2.698 1.393 5.22 3.436 6.989 12.681 10.987 21.599 30.634 22.191 48.891.359 11.12-2.125 27.256-16.01 40.959z"/><path d="m417.397 258.147h-.008c-5.522 0-9.996 4.478-9.996 10s4.481 10 10.004 10 10-4.478 10-10-4.478-10-10-10z"/><path d="m344.493 325.385h-.008c-5.522 0-9.996 4.478-9.996 10s4.481 10 10.004 10 10-4.478 10-10-4.478-10-10-10z"/><path d="m253.109 386.747h-.007c-5.522 0-9.997 4.478-9.997 10s4.481 10 10.004 10c5.522 0 10-4.478 10-10s-4.478-10-10-10z"/><path d="m178.048 251.13c-5.522 0-10 4.478-10 10s4.478 10 10 10c8.34 0 15.125 6.785 15.125 15.125 0 5.522 4.478 10 10 10s10-4.478 10-10c0-19.368-15.756-35.125-35.125-35.125z"/><path d="m208.343 155.5c-5.522 0-10 4.478-10 10s4.478 10 10 10c8.34 0 15.124 6.785 15.124 15.125 0 5.522 4.478 10 10 10s10-4.478 10-10c0-19.368-15.757-35.125-35.124-35.125z"/><path d="m310.342 168.75c8.34 0 15.125 6.785 15.125 15.125 0 5.522 4.478 10 10 10s10-4.478 10-10c0-19.368-15.757-35.125-35.125-35.125-5.522 0-10 4.478-10 10s4.478 10 10 10z"/><path d="m66.592 269.5c-5.522 0-10 4.478-10 10s4.478 10 10 10c8.34 0 15.125 6.785 15.125 15.125 0 5.522 4.478 10 10 10s10-4.478 10-10c0-19.368-15.757-35.125-35.125-35.125z"/><path d="m267.249 297.672h-.007c-5.522 0-9.996 4.478-9.996 10s4.48 10 10.003 10 10-4.478 10-10-4.478-10-10-10z"/></g></g></svg>